HIERARCHY
ROOT hips
{
	OFFSET -0.003675 0.299928 -0.021708
	CHANNELS 6 Xposition Yposition Zposition Xrotation Yrotation Zrotation
	JOINT LowerBack
	{
		OFFSET 0.000919 0.177588 0.009275
		CHANNELS 3 Xrotation Yrotation Zrotation
		JOINT spine
		{
			OFFSET 0.000919 0.177588 0.009275
			CHANNELS 3 Xrotation Yrotation Zrotation
			JOINT chest
			{
				OFFSET 0.000456 0.100015 0.004638
				CHANNELS 3 Xrotation Yrotation Zrotation
				JOINT neck
				{
					OFFSET 0.000456 0.100015 0.004638
					CHANNELS 3 Xrotation Yrotation Zrotation
					JOINT head
					{
						OFFSET 0.000924 0.155147 0.009274
						CHANNELS 6 Xposition Yposition Zposition Xrotation Yrotation Zrotation
						End Site
						{
							OFFSET 0.000000 0.153400 0.000000
						}
					}
				}
				JOINT shoulder.L
				{
					OFFSET 0.019937 0.078966 0.057518
					CHANNELS 6 Xposition Yposition Zposition Yrotation Xrotation Zrotation
					JOINT upper_arm.L
					{
						OFFSET 0.177024 -0.020465 -0.095062
						CHANNELS 6 Xposition Yposition Zposition Xrotation Yrotation Zrotation
						JOINT forearm.L
						{
							OFFSET 0.247100 -0.135500 -0.061800
							CHANNELS 3 Xrotation Yrotation Zrotation
							JOINT hand.L
							{
								OFFSET 0.217000 -0.143000 0.039300
								CHANNELS 3 Xrotation Yrotation Zrotation
								JOINT palm.01.L
								{
									OFFSET 0.021770 -0.038291 0.012954
									CHANNELS 6 Xposition Yposition Zposition Yrotation Xrotation Zrotation
									JOINT f_index.01.L
									{
										OFFSET 0.053215 -0.044137 0.008236
										CHANNELS 3 Xrotation Yrotation Zrotation
										JOINT f_index.02.L
										{
											OFFSET 0.036108 -0.024723 -0.010656
											CHANNELS 3 Xrotation Yrotation Zrotation
											JOINT f_index.03.L
											{
												OFFSET 0.021342 -0.014948 -0.010846
												CHANNELS 3 Xrotation Yrotation Zrotation
												End Site
												{
													OFFSET 0.015600 -0.009860 -0.013421
												}
											}
										}
									}
									JOINT thumb.01.L
									{
										OFFSET -0.009090 -0.002348 -0.024223
										CHANNELS 6 Xposition Yposition Zposition Xrotation Yrotation Zrotation
										JOINT thumb.02.L
										{
											OFFSET 0.019713 -0.035076 -0.011120
											CHANNELS 3 Xrotation Yrotation Zrotation
											JOINT thumb.03.L
											{
												OFFSET 0.024877 -0.021748 -0.005176
												CHANNELS 3 Xrotation Yrotation Zrotation
												End Site
												{
													OFFSET 0.016125 -0.013029 -0.001569
												}
											}
										}
									}
								}
								JOINT palm.02.L
								{
									OFFSET 0.032823 -0.025104 0.012281
									CHANNELS 6 Xposition Yposition Zposition Yrotation Xrotation Zrotation
									JOINT f_middle.01.L
									{
										OFFSET 0.055723 -0.038469 0.008037
										CHANNELS 3 Xrotation Yrotation Zrotation
										JOINT f_middle.02.L
										{
											OFFSET 0.038167 -0.027473 -0.015582
											CHANNELS 3 Xrotation Yrotation Zrotation
											JOINT f_middle.03.L
											{
												OFFSET 0.021707 -0.016587 -0.017037
												CHANNELS 3 Xrotation Yrotation Zrotation
												End Site
												{
													OFFSET 0.014112 -0.010584 -0.014294
												}
											}
										}
									}
								}
								JOINT palm.03.L
								{
									OFFSET 0.039230 -0.011402 0.008390
									CHANNELS 6 Xposition Yposition Zposition Yrotation Xrotation Zrotation
									JOINT f_ring.01.L
									{
										OFFSET 0.061796 -0.031470 0.007910
										CHANNELS 3 Xrotation Yrotation Zrotation
										JOINT f_ring.02.L
										{
											OFFSET 0.033092 -0.023401 -0.019127
											CHANNELS 3 Xrotation Yrotation Zrotation
											JOINT f_ring.03.L
											{
												OFFSET 0.021392 -0.015362 -0.017824
												CHANNELS 3 Xrotation Yrotation Zrotation
												End Site
												{
													OFFSET 0.008670 -0.007297 -0.014686
												}
											}
										}
									}
								}
								JOINT palm.04.L
								{
									OFFSET 0.043417 0.002450 0.002889
									CHANNELS 6 Xposition Yposition Zposition Yrotation Xrotation Zrotation
									JOINT f_pinky.01.L
									{
										OFFSET 0.069986 -0.026156 0.003627
										CHANNELS 3 Xrotation Yrotation Zrotation
										JOINT f_pinky.02.L
										{
											OFFSET 0.018520 -0.012813 -0.016429
											CHANNELS 3 Xrotation Yrotation Zrotation
											JOINT f_pinky.03.L
											{
												OFFSET 0.013822 -0.009796 -0.014947
												CHANNELS 3 Xrotation Yrotation Zrotation
												End Site
												{
													OFFSET 0.007238 -0.006103 -0.011657
												}
											}
										}
									}
								}
							}
						}
					}
				}
				JOINT shoulder.R
				{
					OFFSET -0.016662 0.078957 0.057696
					CHANNELS 6 Xposition Yposition Zposition Yrotation Xrotation Zrotation
					JOINT upper_arm.R
					{
						OFFSET -0.176972 -0.020537 -0.095144
						CHANNELS 6 Xposition Yposition Zposition Xrotation Yrotation Zrotation
						JOINT forearm.R
						{
							OFFSET -0.247100 -0.135500 -0.061800
							CHANNELS 3 Xrotation Yrotation Zrotation
							JOINT hand.R
							{
								OFFSET -0.217000 -0.143000 0.039300
								CHANNELS 3 Xrotation Yrotation Zrotation
								JOINT palm.01.R
								{
									OFFSET -0.021773 -0.038278 0.012988
									CHANNELS 6 Xposition Yposition Zposition Yrotation Xrotation Zrotation
									JOINT f_index.01.R
									{
										OFFSET -0.053212 -0.044139 0.008249
										CHANNELS 3 Xrotation Yrotation Zrotation
										JOINT f_index.02.R
										{
											OFFSET -0.036049 -0.024835 -0.010634
											CHANNELS 3 Xrotation Yrotation Zrotation
											JOINT f_index.03.R
											{
												OFFSET -0.021371 -0.014881 -0.010866
												CHANNELS 3 Xrotation Yrotation Zrotation
												End Site
												{
													OFFSET -0.015584 -0.009883 -0.013422
												}
											}
										}
									}
									JOINT thumb.01.R
									{
										OFFSET 0.009113 -0.002381 -0.024211
										CHANNELS 6 Xposition Yposition Zposition Xrotation Yrotation Zrotation
										JOINT thumb.02.R
										{
											OFFSET -0.019694 -0.035097 -0.011088
											CHANNELS 3 Xrotation Yrotation Zrotation
											JOINT thumb.03.R
											{
												OFFSET -0.024867 -0.021762 -0.005168
												CHANNELS 3 Xrotation Yrotation Zrotation
												End Site
												{
													OFFSET -0.016120 -0.013036 -0.001565
												}
											}
										}
									}
								}
								JOINT palm.02.R
								{
									OFFSET -0.032828 -0.025095 0.012286
									CHANNELS 6 Xposition Yposition Zposition Yrotation Xrotation Zrotation
									JOINT f_middle.01.R
									{
										OFFSET -0.055721 -0.038472 0.008040
										CHANNELS 3 Xrotation Yrotation Zrotation
										JOINT f_middle.02.R
										{
											OFFSET -0.038101 -0.027593 -0.015557
											CHANNELS 3 Xrotation Yrotation Zrotation
											JOINT f_middle.03.R
											{
												OFFSET -0.021730 -0.016530 -0.017054
												CHANNELS 3 Xrotation Yrotation Zrotation
												End Site
												{
													OFFSET -0.014096 -0.010608 -0.014293
												}
											}
										}
									}
								}
								JOINT palm.03.R
								{
									OFFSET -0.039192 -0.011488 0.008390
									CHANNELS 6 Xposition Yposition Zposition Yrotation Xrotation Zrotation
									JOINT f_ring.01.R
									{
										OFFSET -0.061839 -0.031387 0.007876
										CHANNELS 3 Xrotation Yrotation Zrotation
										JOINT f_ring.02.R
										{
											OFFSET -0.033068 -0.023437 -0.019125
											CHANNELS 3 Xrotation Yrotation Zrotation
											JOINT f_ring.03.R
											{
												OFFSET -0.021371 -0.015393 -0.017822
												CHANNELS 3 Xrotation Yrotation Zrotation
												End Site
												{
													OFFSET -0.008654 -0.007321 -0.014684
												}
											}
										}
									}
								}
								JOINT palm.04.R
								{
									OFFSET -0.043421 0.002443 0.002845
									CHANNELS 6 Xposition Yposition Zposition Yrotation Xrotation Zrotation
									JOINT f_pinky.01.R
									{
										OFFSET -0.069983 -0.026169 0.003599
										CHANNELS 3 Xrotation Yrotation Zrotation
										JOINT f_pinky.02.R
										{
											OFFSET -0.018501 -0.012842 -0.016428
											CHANNELS 3 Xrotation Yrotation Zrotation
											JOINT f_pinky.03.R
											{
												OFFSET -0.013806 -0.009821 -0.014946
												CHANNELS 3 Xrotation Yrotation Zrotation
												End Site
												{
													OFFSET -0.007226 -0.006121 -0.011655
												}
											}
										}
									}
								}
							}
						}
					}
				}
			}
		}
	}
	JOINT pelvis.L
	{
		OFFSET 0.000000 0.000000 0.000000
		CHANNELS 6 Xposition Yposition Zposition Xrotation Yrotation Zrotation
		JOINT thigh.L
		{
			OFFSET 0.101675 0.001054 -0.000000
			CHANNELS 3 Xrotation Yrotation Zrotation
			JOINT shin.L
			{
				OFFSET 0.000000 -0.534800 0.041000
				CHANNELS 3 Xrotation Yrotation Zrotation
				JOINT foot.L
				{
					OFFSET 0.000000 -0.452000 -0.044800
					CHANNELS 3 Xrotation Yrotation Zrotation
					JOINT toe.L
					{
						OFFSET -0.000000 -0.068500 0.109600
						CHANNELS 3 Xrotation Yrotation Zrotation
						End Site
						{
							OFFSET -0.000000 0.000000 0.067200
						}
					}
				}
				JOINT heel.L
				{
					OFFSET 0.000000 -0.452000 -0.044800
					CHANNELS 3 Xrotation Yrotation Zrotation
					JOINT heel.02.L
					{
						OFFSET -0.038000 -0.085200 0.016200
						CHANNELS 6 Xposition Yposition Zposition Xrotation Yrotation Zrotation
						End Site
						{
							OFFSET 0.080000 -0.000000 0.000000
						}
					}
				}
			}
		}
	}
	JOINT pelvis.R
	{
		OFFSET 0.000000 0.000000 0.000000
		CHANNELS 6 Xposition Yposition Zposition Xrotation Yrotation Zrotation
		JOINT thigh.R
		{
			OFFSET -0.094325 0.001054 0.000000
			CHANNELS 3 Xrotation Yrotation Zrotation
			JOINT shin.R
			{
				OFFSET 0.000000 -0.534800 0.041000
				CHANNELS 3 Xrotation Yrotation Zrotation
				JOINT foot.R
				{
					OFFSET 0.000000 -0.452000 -0.044800
					CHANNELS 3 Xrotation Yrotation Zrotation
					JOINT toe.R
					{
						OFFSET -0.000000 -0.068500 0.109600
						CHANNELS 3 Xrotation Yrotation Zrotation
						End Site
						{
							OFFSET -0.000000 0.000000 0.067200
						}
					}
				}
				JOINT heel.R
				{
					OFFSET 0.000000 -0.452000 -0.044800
					CHANNELS 3 Xrotation Yrotation Zrotation
					JOINT heel.02.R
					{
						OFFSET 0.038000 -0.085200 0.016200
						CHANNELS 6 Xposition Yposition Zposition Xrotation Yrotation Zrotation
						End Site
						{
							OFFSET -0.080000 0.000000 -0.000000
						}
					}
				}
			}
		}
	}
}
MOTION
Frames: 4
Frame Time: 0.041667
-0.002987 0.201065 -0.001968 90.604993 14.749474 74.526134 -0.000001 0.000000 0.000002 0.000001 0.000000 -0.000000 -0.000001 -0.000000 -0.000001 0.000003 0.000000 0.000002 0.000924 0.155148 0.009274 -7.506867 0.029980 -1.499279 0.019937 0.078966 0.057518 3.022213 5.298734 48.229796 0.177024 -0.020465 -0.095062 -54.343615 14.445888 -56.295672 -59.068009 20.098064 -77.559530 0.000004 0.000002 -0.000004 0.021770 -0.038291 0.012954 0.000001 -0.000002 -0.000002 -0.000003 0.000000 -0.000002 0.000001 -0.000000 0.000007 0.000001 0.000002 0.000003 -0.009090 -0.002348 -0.024223 -0.000002 0.000000 0.000003 0.000001 0.000001 -0.000000 -0.000002 0.000000 0.000006 0.032823 -0.025104 0.012281 -0.000002 -0.000001 0.000002 0.000000 0.000005 -0.000005 -0.000001 0.000006 0.000004 0.000001 0.000002 0.000004 0.039230 -0.011402 0.008390 -0.000000 -0.000000 0.000004 -0.000002 0.000006 0.000001 -0.000000 0.000001 -0.000001 0.000002 -0.000000 0.000004 0.043417 0.002450 0.002889 0.000000 0.000002 -0.000004 0.000001 -0.000001 -0.000002 -0.000002 0.000003 -0.000003 -0.000000 0.000000 -0.000001 -0.016662 0.078957 0.057696 7.850221 0.856247 -32.540189 -0.176972 -0.020537 -0.095144 -44.014313 -19.062568 59.194114 -53.164171 -36.728284 93.112390 0.000000 -0.000002 0.000001 -0.021773 -0.038278 0.012988 0.000003 -0.000003 0.000005 0.000001 0.000001 -0.000003 0.000002 -0.000000 -0.000001 -0.000003 -0.000003 0.000003 0.009114 -0.002381 -0.024211 0.000002 -0.000002 -0.000003 0.000006 0.000001 0.000000 0.000003 -0.000001 -0.000003 -0.032828 -0.025095 0.012286 0.000003 0.000001 0.000004 0.000000 0.000003 -0.000003 0.000004 -0.000004 0.000003 -0.000003 0.000003 -0.000002 -0.039192 -0.011488 0.008390 0.000003 0.000002 0.000005 0.000002 0.000002 -0.000005 -0.000003 -0.000000 -0.000000 -0.000002 0.000003 -0.000002 -0.043421 0.002443 0.002845 -0.000000 0.000002 0.000004 -0.000007 0.000000 0.000001 -0.000003 0.000001 0.000002 -0.000004 -0.000002 -0.000000 0.000000 0.000000 0.000000 -2.098410 2.630400 -28.158923 4.270268 -1.967009 -26.594979 -8.669049 0.325557 -3.284388 -0.000002 0.000001 -0.000002 -0.000000 -0.000002 0.000001 0.000000 0.000001 -0.000001 -0.038000 -0.085200 0.016200 -0.000004 0.000002 0.000002 0.000000 0.000000 0.000000 -1.953349 2.554741 -26.931287 2.673672 -0.328016 -4.451802 -17.267587 1.975112 -20.360924 -0.000003 0.000002 0.000001 -0.000000 0.000002 -0.000001 0.000002 0.000002 0.000000 0.038000 -0.085200 0.016200 -0.000001 0.000001 0.000002 
-0.003265 0.205007 -0.000305 84.869731 17.838897 76.026078 0.000000 -0.000001 0.000001 0.000003 0.000002 -0.000002 0.000001 0.000000 -0.000001 0.000003 0.000000 -0.000001 0.000924 0.155147 0.009274 -11.794203 0.044638 2.018265 0.019937 0.078966 0.057518 1.783151 5.322327 47.479438 0.177025 -0.020465 -0.095062 -53.109686 18.368047 -60.540119 -32.235925 -5.860652 -59.264220 0.000004 -0.000000 0.000003 0.021770 -0.038291 0.012954 -0.000001 -0.000002 -0.000004 -0.000001 0.000002 0.000003 0.000002 0.000003 0.000003 0.000002 0.000004 -0.000000 -0.009090 -0.002348 -0.024224 0.000002 0.000003 0.000001 0.000001 0.000002 0.000001 -0.000000 -0.000002 -0.000002 0.032823 -0.025104 0.012281 -0.000001 -0.000001 0.000004 -0.000003 0.000001 -0.000003 -0.000006 -0.000003 0.000001 -0.000003 -0.000002 0.000004 0.039230 -0.011402 0.008390 0.000000 -0.000000 0.000006 0.000002 0.000003 -0.000002 -0.000005 0.000003 -0.000001 -0.000004 -0.000006 0.000003 0.043417 0.002450 0.002889 -0.000000 -0.000001 -0.000005 -0.000003 0.000001 -0.000001 -0.000002 0.000001 -0.000002 -0.000002 -0.000002 -0.000001 -0.016662 0.078957 0.057696 6.773523 1.465918 -33.407719 -0.176972 -0.020537 -0.095144 -37.540318 -14.420363 53.725571 -44.818923 -30.857593 99.773703 -0.000002 -0.000004 -0.000004 -0.021773 -0.038278 0.012988 0.000001 0.000000 0.000002 -0.000002 0.000001 0.000001 -0.000004 -0.000002 -0.000001 -0.000003 -0.000002 0.000003 0.009114 -0.002381 -0.024212 0.000000 0.000000 -0.000004 -0.000002 -0.000003 0.000002 0.000002 -0.000002 -0.000004 -0.032828 -0.025095 0.012286 0.000002 -0.000000 -0.000003 -0.000000 -0.000004 0.000000 -0.000006 -0.000002 -0.000004 -0.000003 0.000003 -0.000006 -0.039192 -0.011488 0.008390 0.000001 0.000000 0.000001 -0.000003 -0.000002 -0.000003 -0.000002 -0.000001 -0.000004 -0.000003 0.000001 0.000000 -0.043421 0.002442 0.002845 -0.000001 0.000001 0.000000 -0.000002 -0.000001 0.000003 -0.000002 -0.000003 0.000003 -0.000003 -0.000004 0.000001 0.000000 0.000000 0.000000 -2.049050 2.623735 -28.330826 5.213235 -1.986065 -26.942876 -5.927387 0.256153 -2.583198 0.000000 -0.000000 0.000003 0.000001 0.000003 0.000001 0.000005 -0.000006 0.000002 -0.038000 -0.085200 0.016200 -0.000000 0.000001 -0.000000 0.000000 0.000000 0.000000 -1.906244 2.548703 -27.103092 -3.158254 -0.425849 -6.179788 -0.968555 2.083049 -21.528456 0.000002 -0.000001 0.000000 -0.000000 0.000003 0.000002 0.000005 0.000001 0.000001 0.038000 -0.085200 0.016200 -0.000000 -0.000002 0.000000 
-0.003177 0.206714 -0.001523 88.267785 18.243871 76.290891 -0.000000 0.000000 -0.000000 0.000001 0.000000 -0.000000 0.000002 -0.000000 -0.000001 0.000003 -0.000000 -0.000000 0.000924 0.155147 0.009274 -14.180220 0.052952 -0.429037 0.019937 0.078966 0.057518 12.032890 6.946538 47.180000 0.177024 -0.020465 -0.095062 -47.928230 15.390817 -59.698954 -22.140798 -7.946462 -52.493118 -0.000001 -0.000006 0.000002 0.021770 -0.038291 0.012954 0.000004 0.000000 -0.000002 -0.000002 -0.000007 -0.000001 0.000002 0.000003 0.000007 -0.000002 -0.000002 -0.000003 -0.009090 -0.002348 -0.024224 0.000002 -0.000002 -0.000001 0.000001 0.000003 0.000005 0.000001 0.000004 -0.000002 0.032823 -0.025104 0.012281 0.000001 0.000003 0.000004 -0.000000 0.000004 -0.000003 -0.000003 -0.000003 0.000007 -0.000002 0.000005 0.000003 0.039230 -0.011402 0.008390 0.000002 0.000000 0.000003 0.000001 -0.000001 -0.000000 -0.000001 0.000001 0.000006 0.000004 -0.000002 0.000003 0.043417 0.002450 0.002889 0.000004 0.000003 -0.000002 0.000000 -0.000006 0.000001 -0.000002 0.000002 0.000000 -0.000000 0.000001 -0.000002 -0.016662 0.078957 0.057696 13.360579 3.601180 -40.137122 -0.176972 -0.020537 -0.095144 -31.026117 -16.663694 58.662924 -41.146781 -20.045950 94.195822 -0.000001 -0.000005 0.000005 -0.021773 -0.038278 0.012988 0.000002 -0.000001 0.000000 -0.000004 0.000002 -0.000001 -0.000003 -0.000006 -0.000007 -0.000001 0.000000 0.000009 0.009113 -0.002381 -0.024212 -0.000002 -0.000002 0.000002 -0.000000 -0.000004 0.000000 -0.000001 -0.000003 0.000001 -0.032828 -0.025095 0.012286 0.000002 -0.000000 -0.000003 0.000004 0.000003 -0.000003 0.000001 -0.000001 0.000003 -0.000006 0.000002 -0.000009 -0.039192 -0.011488 0.008390 0.000001 0.000000 -0.000004 0.000002 0.000003 -0.000002 0.000002 -0.000003 0.000003 0.000004 0.000003 0.000003 -0.043421 0.002443 0.002844 0.000001 -0.000001 0.000002 -0.000004 0.000003 -0.000001 -0.000003 -0.000004 0.000004 0.000004 0.000002 0.000003 -0.000000 0.000000 0.000000 -1.953485 2.614783 -28.707230 1.385064 -2.160121 -29.252761 -7.634456 0.282451 -2.848807 0.000000 -0.000001 0.000000 -0.000001 0.000002 0.000000 0.000000 -0.000000 -0.000000 -0.038000 -0.085200 0.016200 -0.000000 0.000002 -0.000001 0.000000 0.000000 0.000000 -1.814872 2.540798 -27.479272 -10.335535 -0.535089 -8.153486 3.698024 1.901717 -19.572160 0.000000 0.000001 0.000000 0.000001 -0.000000 0.000001 0.000007 0.000001 0.000002 0.038000 -0.085200 0.016200 -0.000002 0.000003 -0.000002 
-0.004230 0.206672 -0.003076 95.576176 16.030965 73.709530 0.000004 -0.000000 -0.000001 -0.000001 -0.000001 -0.000002 -0.000000 -0.000001 -0.000001 0.000002 0.000000 0.000000 0.000924 0.155148 0.009274 -14.411125 0.053545 0.038812 0.019937 0.078966 0.057518 17.522773 7.932246 46.702238 0.177025 -0.020465 -0.095062 -39.444534 13.084611 -59.291848 -35.908565 -7.759857 -53.553939 -0.000003 -0.000000 -0.000002 0.021770 -0.038291 0.012954 0.000001 -0.000002 -0.000002 -0.000001 0.000002 0.000002 0.000000 0.000001 0.000005 -0.000002 -0.000003 0.000003 -0.009090 -0.002348 -0.024223 0.000001 0.000001 -0.000002 -0.000001 -0.000001 -0.000001 -0.000002 -0.000000 0.000003 0.032823 -0.025104 0.012281 0.000002 0.000001 0.000002 0.000003 0.000000 -0.000005 -0.000004 -0.000003 0.000001 -0.000000 0.000005 -0.000001 0.039230 -0.011402 0.008390 0.000001 -0.000002 0.000004 0.000002 0.000004 0.000003 0.000001 0.000003 0.000003 -0.000001 0.000001 0.000001 0.043417 0.002450 0.002889 0.000001 0.000002 -0.000002 0.000000 -0.000008 0.000002 0.000002 0.000004 -0.000002 -0.000001 0.000003 -0.000004 -0.016662 0.078957 0.057696 14.828884 5.065246 -45.332710 -0.176972 -0.020537 -0.095144 -33.952737 -20.157833 64.997453 -45.087185 -20.331236 88.805054 0.000002 -0.000001 0.000002 -0.021773 -0.038278 0.012988 -0.000003 -0.000004 -0.000003 0.000000 0.000001 0.000001 -0.000001 0.000006 -0.000004 0.000001 0.000004 0.000008 0.009113 -0.002381 -0.024212 0.000003 -0.000001 0.000004 0.000001 -0.000001 -0.000001 -0.000004 -0.000006 -0.000006 -0.032828 -0.025095 0.012286 -0.000003 -0.000002 -0.000001 0.000001 0.000002 -0.000004 0.000000 -0.000001 -0.000001 -0.000001 -0.000002 -0.000001 -0.039192 -0.011488 0.008390 -0.000001 -0.000002 -0.000000 -0.000003 -0.000002 0.000002 0.000002 0.000001 0.000002 0.000001 -0.000001 -0.000000 -0.043421 0.002443 0.002845 -0.000004 -0.000001 0.000000 -0.000008 0.000004 -0.000004 -0.000002 -0.000002 0.000004 -0.000000 0.000001 0.000001 -0.000000 0.000000 0.000000 -1.929235 2.468077 -27.486585 -4.019656 -2.148674 -28.695667 -11.520838 0.259688 -2.618851 -0.000003 -0.000000 0.000002 0.000000 0.000001 0.000001 0.000003 -0.000000 0.000003 -0.038000 -0.085200 0.016200 0.000001 0.000000 0.000000 0.000000 0.000000 0.000000 -1.797400 2.401263 -26.257995 -15.663314 -0.284020 -5.238592 0.884879 2.161387 -22.381862 -0.000002 0.000001 0.000002 -0.000000 0.000000 -0.000001 0.000005 -0.000002 0.000003 0.038000 -0.085200 0.016200 -0.000002 0.000001 0.000003 
